<svg class="font" viewBox="30 117.60000000000001 242.4 61.8" xmlns="http://www.w3.org/2000/svg" data-v-fde0c5aa="" style="max-height: 500px" width="242.4" height="61.8"><defs data-v-fde0c5aa=""/><rect class="logo-background-square" height="300px" width="300px" y="0" x="0" fill="transparent" data-v-fde0c5aa=""/><defs data-v-fde0c5aa=""><linearGradient y2="0%" x2="100%" y1="0%" x1="0%" id="aa3bf3da-419e-49e5-bf65-74d245e83c41" gradientTransform="rotate(25)" data-v-fde0c5aa=""><stop stop-opacity="1" stop-color="#0076DD" offset="0%" data-v-fde0c5aa=""/><stop stop-opacity="1" stop-color="#E600E9" offset="100%" data-v-fde0c5aa=""/></linearGradient></defs><g transform="matrix(3.545527843755408,0,0,3.545527843755408,37.65995153013626,117.31023317913677)" fill="url(#aa3bf3da-419e-49e5-bf65-74d245e83c41)" id="53073f67-3bc2-4113-a751-d2e0fc38e091" data-v-fde0c5aa=""><path d="M4.13 13.13L4.13 13.13Q3.36 13.13 2.72 12.93Q2.08 12.74 1.62 12.28Q1.16 11.82 0.91 11.08Q0.66 10.34 0.66 9.27L0.66 9.27Q0.66 8.13 0.92 7.38Q1.18 6.62 1.64 6.16Q2.11 5.70 2.73 5.51Q3.36 5.31 4.09 5.31L4.09 5.31Q4.76 5.31 5.28 5.42Q5.80 5.54 6.15 5.74Q6.50 5.93 6.68 6.20Q6.86 6.47 6.86 6.78L6.86 6.78Q6.86 7.01 6.78 7.22Q6.71 7.44 6.50 7.60Q6.30 7.77 5.95 7.87Q5.60 7.97 5.05 7.97L5.05 7.97Q5.05 7.61 5.01 7.28Q4.96 6.95 4.86 6.71Q4.76 6.46 4.58 6.31Q4.41 6.17 4.14 6.17L4.14 6.17Q3.83 6.17 3.59 6.31Q3.35 6.46 3.18 6.82Q3.00 7.17 2.91 7.77Q2.82 8.36 2.82 9.26L2.82 9.26Q2.82 10.68 3.21 11.38Q3.60 12.09 4.48 12.09L4.48 12.09Q4.84 12.09 5.16 12.00Q5.48 11.92 5.74 11.76Q6.00 11.61 6.19 11.40Q6.38 11.19 6.51 10.95L6.51 10.95Q6.68 11.05 6.76 11.23Q6.84 11.40 6.84 11.59L6.84 11.59Q6.84 11.86 6.69 12.13Q6.53 12.41 6.20 12.63Q5.87 12.85 5.35 12.99Q4.84 13.13 4.13 13.13ZM15.86 5.49L15.86 6.23L15.58 6.23Q15.44 6.23 15.32 6.27Q15.21 6.30 15.10 6.41Q15.00 6.51 14.90 6.72Q14.79 6.92 14.67 7.25L14.67 7.25L12.64 13.00L10.79 13.00L8.50 6.90Q8.42 6.71 8.32 6.58Q8.22 6.45 8.09 6.37Q7.96 6.30 7.78 6.27Q7.61 6.23 7.38 6.23L7.38 6.23L7.38 5.49L11.72 5.49L11.72 6.23L11.13 6.23Q10.92 6.23 10.79 6.35Q10.66 6.46 10.66 6.68L10.66 6.68Q10.66 6.85 10.71 7.01Q10.75 7.18 10.79 7.29L10.79 7.29L11.73 9.95Q11.90 10.39 12.03 10.84Q12.15 11.29 12.22 11.65L12.22 11.65Q12.26 11.48 12.32 11.27Q12.38 11.05 12.44 10.84Q12.50 10.63 12.55 10.46Q12.61 10.29 12.63 10.22L12.63 10.22L13.58 7.41Q13.64 7.22 13.69 7.02Q13.73 6.83 13.73 6.64L13.73 6.64Q13.73 6.41 13.58 6.32Q13.43 6.23 13.19 6.23L13.19 6.23L12.78 6.23L12.78 5.49L15.86 5.49ZM19.99 13.13L19.99 13.13Q19.22 13.13 18.58 12.93Q17.94 12.74 17.48 12.28Q17.02 11.82 16.77 11.08Q16.52 10.34 16.52 9.27L16.52 9.27Q16.52 8.13 16.78 7.38Q17.04 6.62 17.50 6.16Q17.96 5.70 18.59 5.51Q19.22 5.31 19.95 5.31L19.95 5.31Q20.62 5.31 21.14 5.42Q21.66 5.54 22.01 5.74Q22.36 5.93 22.54 6.20Q22.72 6.47 22.72 6.78L22.72 6.78Q22.72 7.01 22.64 7.22Q22.57 7.44 22.36 7.60Q22.16 7.77 21.81 7.87Q21.46 7.97 20.91 7.97L20.91 7.97Q20.91 7.61 20.87 7.28Q20.82 6.95 20.72 6.71Q20.62 6.46 20.44 6.31Q20.27 6.17 20.00 6.17L20.00 6.17Q19.69 6.17 19.45 6.31Q19.21 6.46 19.03 6.82Q18.86 7.17 18.77 7.77Q18.68 8.36 18.68 9.26L18.68 9.26Q18.68 10.68 19.07 11.38Q19.46 12.09 20.34 12.09L20.34 12.09Q20.70 12.09 21.02 12.00Q21.33 11.92 21.59 11.76Q21.85 11.61 22.05 11.40Q22.24 11.19 22.37 10.95L22.37 10.95Q22.54 11.05 22.62 11.23Q22.70 11.40 22.70 11.59L22.70 11.59Q22.70 11.86 22.54 12.13Q22.39 12.41 22.06 12.63Q21.72 12.85 21.21 12.99Q20.70 13.13 19.99 13.13ZM31.16 9.21L31.16 9.21Q31.16 11.19 30.23 12.16Q29.31 13.13 27.51 13.13L27.51 13.13Q26.67 13.13 26.00 12.89Q25.33 12.65 24.86 12.16Q24.39 11.68 24.14 10.94Q23.89 10.20 23.89 9.21L23.89 9.21Q23.89 7.24 24.82 6.28Q25.74 5.31 27.55 5.31L27.55 5.31Q28.39 5.31 29.06 5.55Q29.72 5.79 30.19 6.28Q30.66 6.76 30.91 7.50Q31.16 8.23 31.16 9.21ZM26.07 9.21L26.07 9.21Q26.07 9.96 26.14 10.53Q26.22 11.09 26.40 11.48Q26.57 11.86 26.85 12.06Q27.13 12.25 27.54 12.25L27.54 12.25Q27.94 12.25 28.22 12.06Q28.49 11.86 28.67 11.48Q28.84 11.09 28.92 10.53Q28.99 9.96 28.99 9.21L28.99 9.21Q28.99 8.46 28.91 7.90Q28.83 7.33 28.66 6.96Q28.49 6.58 28.21 6.40Q27.92 6.21 27.52 6.21L27.52 6.21Q27.12 6.21 26.84 6.40Q26.56 6.58 26.39 6.96Q26.22 7.33 26.14 7.90Q26.07 8.46 26.07 9.21ZM40.80 13.00L38.01 13.00L37.71 12.00L37.64 12.00Q37.43 12.37 37.18 12.59Q36.93 12.81 36.65 12.93Q36.37 13.05 36.06 13.09Q35.75 13.13 35.42 13.13L35.42 13.13Q34.33 13.13 33.75 12.46Q33.16 11.78 33.16 10.36L33.16 10.36L33.16 7.23Q33.16 6.92 33.11 6.73Q33.05 6.54 32.94 6.43Q32.82 6.32 32.64 6.28Q32.46 6.23 32.20 6.23L32.20 6.23L32.18 6.23L32.18 5.49L35.29 5.49L35.29 9.97Q35.29 10.42 35.34 10.79Q35.39 11.15 35.51 11.41Q35.64 11.66 35.84 11.80Q36.05 11.94 36.35 11.94L36.35 11.94Q36.69 11.94 36.93 11.80Q37.17 11.65 37.33 11.37Q37.48 11.09 37.55 10.70Q37.63 10.31 37.63 9.82L37.63 9.82L37.63 7.13Q37.63 6.82 37.54 6.64Q37.46 6.47 37.32 6.37Q37.19 6.28 37.00 6.26Q36.82 6.23 36.61 6.23L36.61 6.23L36.57 6.23L36.57 5.49L39.75 5.49L39.75 11.37Q39.75 11.68 39.82 11.85Q39.89 12.02 40.02 12.11Q40.14 12.20 40.31 12.23Q40.48 12.25 40.69 12.25L40.69 12.25L40.80 12.25L40.80 13.00ZM46.11 12.25L46.11 13.00L41.43 13.00L41.43 12.25L41.47 12.25Q41.71 12.25 41.91 12.22Q42.11 12.18 42.25 12.08Q42.40 11.97 42.48 11.77Q42.55 11.57 42.55 11.25L42.55 11.25L42.55 7.18Q42.55 6.88 42.48 6.69Q42.41 6.50 42.28 6.40Q42.14 6.30 41.96 6.27Q41.77 6.23 41.54 6.23L41.54 6.23L41.50 6.23L41.50 5.49L44.33 5.49L44.61 6.58L44.68 6.58Q44.82 6.27 44.98 6.03Q45.14 5.80 45.37 5.64Q45.60 5.48 45.91 5.40Q46.22 5.33 46.66 5.33L46.66 5.33Q47.48 5.33 47.87 5.62Q48.26 5.91 48.26 6.46L48.26 6.46Q48.26 7.10 47.80 7.46Q47.33 7.81 46.48 7.81L46.48 7.81Q46.48 7.53 46.45 7.31Q46.42 7.09 46.34 6.95Q46.27 6.80 46.13 6.73Q46.00 6.65 45.80 6.65L45.80 6.65Q45.55 6.65 45.38 6.77Q45.20 6.90 45.08 7.09Q44.95 7.29 44.87 7.53Q44.80 7.78 44.75 8.03Q44.71 8.28 44.69 8.50Q44.68 8.73 44.68 8.89L44.68 8.89L44.68 11.31Q44.68 11.62 44.75 11.81Q44.83 12.00 44.96 12.09Q45.09 12.19 45.27 12.22Q45.45 12.25 45.66 12.25L45.66 12.25L46.11 12.25ZM51.71 13.13L51.71 13.13Q50.95 13.13 50.41 13.01Q49.88 12.89 49.54 12.67Q49.20 12.45 49.04 12.15Q48.89 11.85 48.89 11.50L48.89 11.50Q48.89 11.16 49.02 10.95Q49.16 10.74 49.36 10.62Q49.56 10.51 49.79 10.47Q50.01 10.43 50.20 10.43L50.20 10.43Q50.20 10.87 50.31 11.22Q50.42 11.57 50.61 11.81Q50.81 12.05 51.09 12.18Q51.37 12.31 51.71 12.31L51.71 12.31Q52.07 12.31 52.33 12.24Q52.60 12.16 52.76 12.03Q52.93 11.89 53.01 11.72Q53.09 11.55 53.09 11.35L53.09 11.35Q53.09 11.12 53.01 10.94Q52.92 10.76 52.73 10.60Q52.53 10.44 52.20 10.28Q51.86 10.13 51.37 9.96L51.37 9.96Q50.80 9.76 50.37 9.54Q49.94 9.32 49.64 9.03Q49.34 8.75 49.19 8.38Q49.03 8.02 49.03 7.55L49.03 7.55Q49.03 6.99 49.25 6.57Q49.46 6.15 49.86 5.88Q50.26 5.60 50.81 5.46Q51.37 5.33 52.04 5.33L52.04 5.33Q52.71 5.33 53.17 5.44Q53.63 5.55 53.93 5.74Q54.22 5.92 54.36 6.15Q54.50 6.38 54.50 6.62L54.50 6.62Q54.50 7.10 54.16 7.34Q53.83 7.59 53.07 7.59L53.07 7.59Q53.07 6.89 52.76 6.50Q52.45 6.12 51.84 6.12L51.84 6.12Q51.61 6.12 51.40 6.17Q51.19 6.23 51.04 6.34Q50.89 6.45 50.79 6.61Q50.70 6.77 50.70 6.99L50.70 6.99Q50.70 7.21 50.79 7.39Q50.87 7.57 51.09 7.73Q51.30 7.89 51.67 8.05Q52.04 8.22 52.62 8.42L52.62 8.42Q53.08 8.58 53.47 8.79Q53.87 9.00 54.15 9.27Q54.43 9.54 54.59 9.88Q54.75 10.23 54.75 10.67L54.75 10.67Q54.75 11.25 54.55 11.71Q54.35 12.17 53.96 12.48Q53.57 12.80 53.00 12.96Q52.43 13.13 51.71 13.13ZM59.46 6.22L59.46 6.22Q58.87 6.22 58.53 6.80Q58.18 7.38 58.15 8.50L58.15 8.50L60.57 8.50Q60.57 7.97 60.50 7.55Q60.44 7.12 60.31 6.83Q60.18 6.54 59.97 6.38Q59.76 6.22 59.46 6.22ZM59.59 13.13L59.59 13.13Q58.70 13.13 58.02 12.87Q57.34 12.61 56.88 12.12Q56.42 11.63 56.19 10.91Q55.96 10.20 55.96 9.28L55.96 9.28Q55.96 8.30 56.19 7.55Q56.42 6.81 56.87 6.31Q57.31 5.81 57.96 5.56Q58.60 5.31 59.43 5.31L59.43 5.31Q60.19 5.31 60.80 5.53Q61.41 5.74 61.83 6.17Q62.25 6.59 62.48 7.22Q62.71 7.85 62.71 8.68L62.71 8.68L62.71 9.40L58.12 9.40Q58.14 10.10 58.27 10.61Q58.41 11.12 58.64 11.44Q58.88 11.77 59.22 11.93Q59.55 12.09 59.99 12.09L59.99 12.09Q60.35 12.09 60.66 12.00Q60.97 11.92 61.22 11.76Q61.47 11.61 61.66 11.40Q61.84 11.19 61.97 10.95L61.97 10.95Q62.34 11.16 62.34 11.63L62.34 11.63Q62.34 11.94 62.18 12.21Q62.02 12.48 61.67 12.68Q61.33 12.89 60.82 13.01Q60.30 13.13 59.59 13.13Z"/></g></svg>